# xmcd
# 
# Track frame offsets:
#     150
#     12330
#     24637
#     36387
#     49222
#     61777
#     74129
#     84827
#     99144
#     111779
#     125294
#     137209
#     147996
#     162456
# 
# Disc length: 2325
# 
# Revision: 1
# Processed by: cddbd v1.5.2PL0 Copyright (c) Steve Scherf et al.
# Submitted via: fre:ac v1.1beta1pre3
# 
DISCID=c209130e
DTITLE=Lonnie Johnson - Me and My Crazy Self
DYEAR=1991
DGENRE=Blues
TTITLE0=It was all in vain
TTITLE1=Nothing but blues
TTITLE2=Me and my crazy self
TTITLE3=What a woman
TTITLE4=Falling rain blues
TTITLE5=Playng around
TTITLE6=It's too late to cry
TTITLE7=Seven long days
TTITLE8=Why should i cry
TTITLE9=Friendless blues
TTITLE10=Happy new year darling
TTITLE11=Old fashioned love
TTITLE12=My my baby
TTITLE13=What a real woman
EXTD=
EXTT0=
EXTT1=
EXTT2=
EXTT3=
EXTT4=
EXTT5=
EXTT6=
EXTT7=
EXTT8=
EXTT9=
EXTT10=
EXTT11=
EXTT12=
EXTT13=
PLAYORDER=
